<?xml version="1.0" standalone="no"?>
<!DOCTYPE svg PUBLIC "-//W3C//DTD SVG 20010904//EN"
 "http://www.w3.org/TR/2001/REC-SVG-20010904/DTD/svg10.dtd">
<svg version="1.0" xmlns="http://www.w3.org/2000/svg"
 width="1574.000000pt" height="892.000000pt" viewBox="0 0 1574.000000 892.000000"
 preserveAspectRatio="xMidYMid meet">
<g transform="translate(0.000000,892.000000) scale(0.100000,-0.100000)"
fill="#FFFFFF" stroke="none">
<path d="M3053 8758 c-30 -34 -58 -94 -76 -168 -21 -88 -78 -434 -127 -775
-53 -373 -280 -2140 -325 -2528 -48 -417 -75 -505 -266 -887 -167 -331 -510
-911 -737 -1245 -317 -466 -601 -774 -802 -869 -56 -26 -77 -31 -146 -31 -99
0 -114 10 -114 72 0 44 36 200 65 282 23 65 20 91 -9 91 -58 0 -209 -165 -242
-264 -21 -62 -15 -156 14 -213 29 -56 103 -118 165 -139 71 -24 185 -22 260 5
219 77 509 331 755 659 180 242 315 463 512 842 174 335 283 501 322 488 22
-8 20 -87 -6 -228 -56 -307 -100 -657 -140 -1120 -86 -983 -115 -2079 -62
-2295 23 -95 89 -133 115 -67 37 95 55 411 82 1427 l11 430 150 320 c374 800
713 1325 854 1325 74 0 51 -184 -65 -530 -133 -399 -268 -649 -508 -944 -48
-60 -114 -141 -146 -180 -67 -83 -123 -188 -132 -250 -17 -110 46 -250 256
-567 163 -246 285 -446 388 -639 141 -263 315 -450 446 -480 57 -13 134 29
281 156 77 67 112 117 131 191 42 164 82 165 281 1 167 -136 287 -189 432
-189 194 0 332 100 447 326 66 129 99 174 152 203 70 39 92 27 105 -58 8 -50
78 -152 171 -249 142 -149 251 -213 365 -213 105 0 303 97 368 180 90 116 266
537 451 1085 107 316 156 482 315 1069 124 455 166 584 197 604 45 27 39 -132
-33 -816 -29 -274 -32 -337 -32 -615 0 -268 4 -344 27 -560 15 -137 35 -350
46 -472 21 -236 37 -299 81 -323 59 -32 108 14 129 122 63 320 212 807 436
1428 156 430 310 790 339 790 8 0 17 -11 20 -25 17 -68 28 -341 36 -920 9
-658 12 -707 53 -821 41 -113 146 -280 229 -363 90 -91 236 -141 367 -125 109
13 129 35 230 245 125 261 268 637 361 950 97 324 178 444 219 324 10 -32 11
-84 5 -265 -14 -366 -10 -700 9 -806 39 -211 128 -387 254 -506 87 -81 120
-93 253 -93 132 0 177 15 250 81 63 57 121 148 306 485 196 356 308 579 393
777 103 240 170 362 200 362 4 0 16 -9 26 -20 22 -24 18 -89 -25 -390 -53
-373 -60 -591 -25 -775 30 -157 78 -249 177 -340 73 -68 111 -88 165 -88 103
0 205 125 408 503 286 531 352 646 558 965 192 298 200 310 224 313 17 3 24
-5 33 -34 16 -48 8 -324 -14 -474 -46 -316 -71 -701 -63 -965 11 -349 66 -565
159 -619 74 -44 168 -15 263 81 92 93 140 180 305 548 198 441 558 1118 743
1395 87 131 123 177 206 263 73 76 106 97 149 97 36 0 58 -23 83 -91 39 -103
50 -238 59 -779 13 -764 37 -980 131 -1218 80 -201 265 -430 403 -497 72 -35
146 -32 198 7 39 30 63 70 55 92 -4 9 -59 41 -122 71 -69 33 -135 73 -162 98
-59 54 -126 149 -162 229 -84 186 -98 301 -121 1008 -12 352 -34 697 -56 855
-30 220 -95 354 -195 406 -194 99 -512 -206 -878 -841 -100 -173 -350 -676
-450 -905 -146 -335 -274 -565 -332 -595 -16 -9 -26 -8 -44 4 -18 12 -25 28
-31 73 -12 96 14 683 57 1313 31 456 35 619 15 658 -72 140 -282 0 -568 -379
-163 -217 -324 -475 -533 -855 -162 -295 -252 -447 -282 -480 -65 -71 -147 16
-189 201 -57 256 22 1071 143 1464 97 317 112 407 73 449 -37 39 -77 30 -135
-32 -39 -41 -73 -98 -147 -247 -53 -107 -142 -266 -199 -354 -197 -309 -263
-422 -454 -780 -180 -338 -368 -676 -414 -744 -92 -135 -182 -171 -268 -105
-80 60 -190 283 -225 453 -25 122 -35 428 -27 781 10 411 29 589 93 895 14 66
26 139 26 161 0 55 -30 94 -72 94 -53 0 -105 -66 -167 -211 -51 -117 -124
-278 -291 -639 -98 -213 -230 -520 -340 -795 -150 -374 -261 -592 -314 -616
-32 -15 -86 14 -153 83 -157 162 -226 454 -254 1083 -6 138 -8 300 -5 360 14
247 26 784 20 842 -8 78 -21 97 -66 96 -48 -1 -84 -22 -146 -83 -87 -86 -260
-356 -349 -548 -112 -239 -263 -666 -372 -1048 -92 -328 -134 -399 -171 -299
-23 63 -19 668 8 1125 69 1140 111 1571 228 2311 153 971 338 1894 439 2195
56 165 61 215 25 262 -32 43 -98 82 -138 82 -44 0 -92 -46 -130 -123 -63 -127
-104 -336 -167 -857 -83 -679 -249 -1644 -406 -2355 -47 -212 -76 -322 -169
-625 -38 -124 -105 -349 -150 -500 -228 -774 -541 -1670 -699 -2001 -62 -131
-147 -197 -267 -207 -110 -8 -186 34 -298 168 -112 134 -193 270 -217 363 -10
40 -8 56 10 114 22 72 88 195 188 353 206 324 481 879 540 1092 26 93 25 352
-1 427 -38 110 -153 183 -287 182 -96 0 -167 -30 -238 -100 -64 -64 -133 -194
-264 -501 -154 -362 -170 -446 -187 -1046 -10 -344 -19 -463 -42 -534 -31
-100 -159 -295 -272 -417 -129 -139 -217 -155 -382 -69 -160 82 -323 232 -324
296 0 71 74 314 170 554 204 512 289 910 234 1097 -39 133 -147 240 -258 255
-154 22 -258 -134 -370 -557 -74 -280 -102 -508 -86 -703 11 -139 16 -172 56
-372 30 -150 31 -250 4 -329 -28 -82 -105 -215 -168 -291 -111 -135 -200 -166
-280 -99 -47 39 -160 212 -266 407 -145 267 -252 435 -434 681 -126 171 -194
284 -186 311 10 34 106 162 221 296 199 231 291 367 429 634 225 436 338 865
279 1062 -18 62 -74 129 -121 144 -49 17 -113 -1 -193 -52 -78 -52 -250 -222
-331 -329 -119 -158 -249 -406 -329 -629 -81 -222 -167 -400 -207 -427 -31
-20 -54 5 -54 60 0 59 25 225 59 402 41 209 77 447 101 670 35 330 41 377 61
485 48 254 144 571 244 805 26 61 98 214 161 342 217 442 355 804 449 1171 64
256 92 573 81 917 -17 512 -85 899 -202 1145 -70 148 -130 193 -181 138z m139
-560 c32 -35 56 -75 70 -122 38 -128 20 -950 -28 -1256 -31 -202 -109 -474
-254 -885 -116 -329 -180 -486 -211 -517 -79 -80 -86 44 -23 407 13 77 40 230
59 340 52 299 120 780 160 1140 38 346 90 742 106 813 5 24 16 59 24 78 19 45
55 46 97 2z m2760 -5114 c51 -26 63 -144 28 -275 -82 -315 -520 -1230 -604
-1262 -34 -13 -46 19 -46 121 1 382 235 1175 403 1365 65 74 141 92 219 51z
m-1568 -483 c16 -14 37 -45 48 -69 17 -39 18 -50 8 -118 -14 -91 -108 -453
-180 -689 -81 -265 -132 -385 -164 -385 -24 0 -54 48 -67 104 -18 80 -6 373
21 525 47 269 144 537 230 634 37 43 56 42 104 -2z"/>
</g>
</svg>
